Coordinates
version=1
nRows=34
nColumns=38
inDegrees=no

Units are S.I. units (second, meters, Newtons, ...)
If the header above contains a line with 'inDegrees', this indicates whether rotational values are in degrees (yes) or radians (no).

endheader
time	pelvis_tilt	pelvis_list	pelvis_rotation	pelvis_tx	pelvis_ty	pelvis_tz	hip_flexion_r	hip_adduction_r	hip_rotation_r	knee_angle_r	ankle_angle_r	subtalar_angle_r	mtp_angle_r	hip_flexion_l	hip_adduction_l	hip_rotation_l	knee_angle_l	ankle_angle_l	subtalar_angle_l	mtp_angle_l	lumbar_extension	lumbar_bending	lumbar_rotation	arm_flex_r	arm_add_r	arm_rot_r	elbow_flex_r	pro_sup_r	wrist_flex_r	wrist_dev_r	arm_flex_l	arm_add_l	arm_rot_l	elbow_flex_l	pro_sup_l	wrist_flex_l	wrist_dev_l
1.05	0.814188	1.48577	0.75575	0.483953	0.862868	1.06104	0.3882	-0.0576214	-0.223534	0.863057	-0.0475503	0	0	-0.00928911	-0.0960371	-0.369457	0.242349	-0.171847	0	0	-0.14624	0.05296	-0.0535049	-0.161851	-0.225915	0.03643	0.734887	1.5708	0	0	-0.164267	-0.307444	0.144275	0.997713	1.21955	0	0
1.06	0.839847	1.48255	0.737021	0.482765	0.875504	1.06142	0.395822	-0.0521466	-0.241762	0.807011	-0.0497633	0	0	-0.0271594	-0.0976824	-0.365858	0.228765	-0.177325	0	0	-0.148334	0.0598515	-0.0598291	-0.168078	-0.221268	0.0184402	0.730413	1.5708	0	0	-0.157272	-0.311444	0.145202	1.01583	1.2291	0	0
1.07	0.86122	1.47959	0.722826	0.481644	0.888182	1.06137	0.401496	-0.0460403	-0.256615	0.746158	-0.0534275	0	0	-0.0449208	-0.0992554	-0.362792	0.215695	-0.181472	0	0	-0.150528	0.0661598	-0.0661499	-0.173229	-0.217828	0.00439234	0.725081	1.5708	0	0	-0.150101	-0.31575	0.146283	1.0339	1.2384	0	0
1.08	0.879067	1.47716	0.712772	0.480561	0.900926	1.06088	0.405025	-0.0397036	-0.270065	0.680597	-0.0589143	0	0	-0.0627281	-0.100538	-0.359479	0.202986	-0.184279	0	0	-0.152891	0.0717038	-0.0727002	-0.177625	-0.215745	-0.00544296	0.719226	1.5708	0	0	-0.142862	-0.320424	0.14751	1.05213	1.24684	0	0
1.09	0.885971	1.47493	0.713433	0.479559	0.913703	1.0599	0.407149	-0.0328662	-0.28081	0.6098	-0.0670958	0	0	-0.0794295	-0.101414	-0.357293	0.191587	-0.184961	0	0	-0.154528	0.0762564	-0.0786872	-0.181392	-0.214856	-0.0106793	0.712543	1.5708	0	0	-0.135472	-0.325267	0.149054	1.07013	1.25443	0	0
1.1	0.889653	1.47296	0.716963	0.478641	0.926502	1.05851	0.406948	-0.0255031	-0.289432	0.533361	-0.0853365	0	0	-0.0955428	-0.102533	-0.356779	0.182004	-0.183963	0	0	-0.156165	0.0802389	-0.0845475	-0.183188	-0.220552	0.00358044	0.705116	1.56058	0	0	-0.128232	-0.329687	0.14939	1.08773	1.2632	0	0
1.11	0.870866	1.47066	0.742262	0.477901	0.939454	1.05651	0.407318	-0.018431	-0.292549	0.454581	-0.0930603	0	0	-0.109535	-0.102565	-0.355885	0.173294	-0.18211	0	0	-0.155206	0.0825821	-0.0888211	-0.186083	-0.216558	-0.00781094	0.695059	1.5708	0	0	-0.12009	-0.335548	0.153472	1.10414	1.2686	0	0
1.12	0.852886	1.46943	0.766467	0.477298	0.952527	1.05415	0.404301	-0.0110682	-0.288723	0.370544	-0.108202	0	0	-0.124461	-0.102041	-0.354678	0.164766	-0.178911	0	0	-0.15511	0.0836602	-0.0926916	-0.187759	-0.215954	-0.00742263	0.684424	1.5708	0	0	-0.111887	-0.341804	0.157605	1.12054	1.27423	0	0
1.13	0.829374	1.46904	0.796651	0.476727	0.96567	1.05141	0.398876	-0.00466312	-0.278036	0.283267	-0.132989	0	0	-0.138818	-0.101114	-0.353837	0.158257	-0.172066	0	0	-0.155178	0.0834796	-0.0972234	-0.187738	-0.216851	-0.000114342	0.671795	1.5708	0	0	-0.103779	-0.348523	0.161925	1.13692	1.27872	0	0
1.14	0.777507	1.4682	0.854825	0.476199	0.978938	1.04803	0.395486	-0.00118113	-0.261718	0.198638	-0.143821	0	0	-0.150154	-0.0986816	-0.354	0.153644	-0.165973	0	0	-0.152223	0.0810975	-0.101606	-0.187271	-0.21744	0.00773603	0.657531	1.5708	0	0	-0.0963259	-0.355188	0.166131	1.15261	1.28265	0	0
1.15	0.709345	1.46707	0.928904	0.475788	0.992287	1.04418	0.392615	-0.000158747	-0.239633	0.116331	-0.151033	0	0	-0.159655	-0.0952713	-0.354671	0.150868	-0.159645	0	0	-0.14788	0.0769058	-0.105689	-0.186389	-0.218377	0.0185486	0.642545	1.5708	0	0	-0.0891946	-0.361956	0.170073	1.16775	1.28648	0	0
1.16	0.635951	1.46631	1.00859	0.475395	1.00581	1.04001	0.389552	-0.0020657	-0.216255	0.0396286	-0.153248	0	0	-0.168839	-0.0913788	-0.355453	0.150245	-0.154484	0	0	-0.143609	0.0715336	-0.110112	-0.185568	-0.21946	0.0316446	0.627597	1.5708	0	0	-0.0823837	-0.368452	0.173496	1.18219	1.29051	0	0
1.17	0.571261	1.46645	1.07992	0.474931	1.01957	1.03576	0.391327	-0.00656864	-0.211835	0	-0.14812	0	0	-0.179312	-0.0879041	-0.357257	0.151043	-0.152411	0	0	-0.141232	0.0667501	-0.113152	-0.187347	-0.216323	0.0278964	0.615963	1.5708	0	0	-0.0740039	-0.37338	0.177644	1.19425	1.29391	0	0
1.18	0.497462	1.46526	1.15882	0.474677	1.03356	1.03133	0.399765	-0.0126415	-0.214073	0	-0.140995	0	0	-0.187278	-0.0847404	-0.361534	0.15623	-0.139318	0	0	-0.136265	0.0600962	-0.118786	-0.175918	-0.251047	0.162323	0.599764	1.44693	0	0	-0.0697294	-0.380225	0.179876	1.20681	1.30027	0	0
1.19	0.439911	1.46371	1.22244	0.474547	1.04782	1.02707	0.408748	-0.0175801	-0.226781	0	-0.116517	0	0	-0.193934	-0.0851291	-0.368812	0.167296	-0.123608	0	0	-0.132987	0.0553172	-0.120508	-0.176498	-0.21979	0.0733334	0.57004	1.5708	0	0	-0.0609976	-0.386053	0.186586	1.21508	1.31152	0	0
1.2	0.408281	1.4637	1.25954	0.474515	1.0622	1.0231	0.413375	-0.0200824	-0.233992	0	-0.108941	0	0	-0.203452	-0.0874128	-0.372799	0.177334	-0.119991	0	0	-0.132702	0.0534516	-0.121891	-0.174323	-0.219167	0.0814918	0.553639	1.5708	0	0	-0.0523815	-0.38924	0.190923	1.22097	1.31743	0	0
1.21	0.391177	1.46407	1.28211	0.474566	1.07676	1.01937	0.41697	-0.0209603	-0.235916	0	-0.103217	0	0	-0.213231	-0.0914889	-0.374137	0.18853	-0.117996	0	0	-0.133475	0.0535039	-0.122868	-0.173128	-0.218776	0.0874998	0.540015	1.5708	0	0	-0.0437752	-0.390755	0.19458	1.22437	1.32219	0	0
1.22	0.392329	1.46503	1.28617	0.474694	1.09151	1.01602	0.420175	-0.0197878	-0.233683	0	-0.10296	0	0	-0.223633	-0.0974507	-0.372637	0.200379	-0.119136	0	0	-0.135676	0.0558542	-0.123017	-0.172595	-0.217601	0.0867602	0.52844	1.5708	0	0	-0.0344192	-0.391899	0.20029	1.22507	1.32331	0	0
1.23	0.417593	1.46662	1.26495	0.474944	1.10648	1.01315	0.422823	-0.0155092	-0.228757	0	-0.100902	0	0	-0.234222	-0.106294	-0.373476	0.215767	-0.118128	0	0	-0.139464	0.0606031	-0.122534	-0.168894	-0.217832	0.0924703	0.513403	1.5708	0	0	-0.0260966	-0.391608	0.204139	1.22365	1.32858	0	0
1.24	0.463688	1.46839	1.22115	0.475345	1.12177	1.0107	0.424363	-0.00793224	-0.221429	0	-0.105153	0	0	-0.245384	-0.116874	-0.375865	0.232743	-0.118396	0	0	-0.144034	0.0674686	-0.120589	-0.164268	-0.218783	0.0993607	0.497889	1.5708	0	0	-0.0190358	-0.390076	0.207036	1.22011	1.33469	0	0
1.25	0.542213	1.47089	1.14321	0.475857	1.13751	1.00874	0.422056	0.00398869	-0.212131	0	-0.148149	0	0	-0.257548	-0.130946	-0.386794	0.25503	-0.125134	0	0	-0.149528	0.0764141	-0.121042	-0.145165	-0.257614	0.279527	0.482067	1.42075	0	0	-0.0190554	-0.383881	0.197157	1.21623	1.35382	0	0
1.26	0.616423	1.47147	1.06989	0.476483	1.15367	1.00693	0.420723	0.0165016	-0.203107	0	-0.201832	0	0	-0.268359	-0.143449	-0.388308	0.274428	-0.137544	0	0	-0.15369	0.0862261	-0.116563	-0.152038	-0.224421	0.129678	0.46462	1.5708	0	0	-0.0152718	-0.37855	0.196613	1.20868	1.36276	0	0
1.27	0.695537	1.46965	0.991241	0.47718	1.17015	1.00538	0.42031	0.0303421	-0.19282	0	-0.243888	0	0	-0.276139	-0.157133	-0.387989	0.296558	-0.148689	0	0	-0.154486	0.0973566	-0.11515	-0.149207	-0.226597	0.136664	0.453219	1.5708	0	0	-0.0162767	-0.373155	0.193338	1.19994	1.36646	0	0
1.28	0.774107	1.46544	0.912184	0.477854	1.18672	1.00429	0.429023	0.0428801	-0.201691	0.0413289	-0.277502	0	0	-0.280401	-0.171606	-0.384988	0.321889	-0.167331	0	0	-0.153833	0.11037	-0.112903	-0.146845	-0.229142	0.139615	0.443885	1.5708	0	0	-0.0186437	-0.364819	0.187283	1.18819	1.37095	0	0
1.29	0.840818	1.45844	0.844113	0.478533	1.20328	1.00361	0.442138	0.0542436	-0.216553	0.0930172	-0.289262	0	0	-0.279849	-0.186409	-0.376478	0.35087	-0.190673	0	0	-0.150864	0.124631	-0.110116	-0.144871	-0.232647	0.143487	0.43667	1.5708	0	0	-0.0224969	-0.354464	0.179175	1.17399	1.37466	0	0
1.3	0.891769	1.44833	0.790724	0.479255	1.21979	1.00329	0.456545	0.0657128	-0.229223	0.147097	-0.281206	0	0	-0.273786	-0.201381	-0.360638	0.383675	-0.218191	0	0	-0.144956	0.140184	-0.106463	-0.143882	-0.23636	0.144266	0.432116	1.5708	0	0	-0.0278155	-0.34214	0.169264	1.1574	1.37759	0	0
1.31	0.920943	1.43516	0.758287	0.480031	1.23616	1.00321	0.470162	0.0784456	-0.227825	0.195261	-0.259268	0	0	-0.260485	-0.216052	-0.335452	0.421854	-0.249067	0	0	-0.135356	0.156452	-0.102598	-0.14359	-0.240235	0.14282	0.430118	1.5708	0	0	-0.0349435	-0.32802	0.157045	1.13893	1.37937	0	0
1.32	0.923835	1.41976	0.751894	0.480903	1.25227	1.00324	0.484233	0.09218	-0.210617	0.237314	-0.226643	0	0	-0.238347	-0.229372	-0.29905	0.466484	-0.287637	0	0	-0.12135	0.171767	-0.100504	-0.14217	-0.246544	0.155	0.429195	1.5708	0	0	-0.0454508	-0.311276	0.137868	1.11979	1.38461	0	0
1.33	0.912936	1.40369	0.760484	0.481821	1.26801	1.00328	0.497927	0.106246	-0.188359	0.273072	-0.203181	0	0	-0.208559	-0.241119	-0.251995	0.518062	-0.319677	0	0	-0.104327	0.185394	-0.102227	-0.132749	-0.282451	0.31313	0.438543	1.40224	0	0	-0.0580668	-0.296103	0.11765	1.10108	1.38508	0	0
1.34	0.896074	1.389	0.778334	0.482643	1.28342	1.00332	0.510416	0.11764	-0.174413	0.304997	-0.179736	0	0	-0.172969	-0.249992	-0.196516	0.57579	-0.350287	0	0	-0.0882238	0.196722	-0.103635	-0.140956	-0.253276	0.154551	0.437049	1.5708	0	0	-0.068048	-0.281859	0.100267	1.08251	1.3856	0	0
1.35	0.891177	1.37783	0.788356	0.483174	1.29861	1.0035	0.51678	0.125597	-0.174858	0.33154	-0.161536	0	0	-0.136717	-0.256629	-0.138171	0.637512	-0.377165	0	0	-0.0750443	0.205601	-0.110586	-0.141505	-0.253558	0.142387	0.447202	1.5708	0	0	-0.0792583	-0.270029	0.0826445	1.0665	1.38169	0	0
1.36	0.891376	1.36904	0.796652	0.483457	1.31358	1.00373	0.51725	0.130542	-0.184034	0.351107	-0.140166	0	0	-0.0992391	-0.261066	-0.0805422	0.700979	-0.408405	0	0	-0.0635721	0.212406	-0.120703	-0.141737	-0.254886	0.138242	0.459944	1.5708	0	0	-0.0907347	-0.258162	0.0626698	1.05211	1.37794	0	0
1.37	0.900955	1.36271	0.797892	0.483517	1.32825	1.0042	0.510004	0.134362	-0.194198	0.361248	-0.121655	0	0	-0.0622781	-0.263961	-0.0264183	0.763777	-0.441146	0	0	-0.0556036	0.218091	-0.131398	-0.141937	-0.255881	0.133218	0.475264	1.5708	0	0	-0.100114	-0.247484	0.0448935	1.03821	1.372	0	0
1.38	0.915613	1.35848	0.795798	0.483366	1.34261	1.00497	0.497101	0.137557	-0.202213	0.363976	-0.104086	0	0	-0.0259081	-0.264986	0.0242551	0.824258	-0.473014	0	0	-0.0504077	0.222524	-0.141498	-0.142532	-0.256	0.124153	0.492879	1.5708	0	0	-0.106669	-0.237787	0.0300339	1.02346	1.36504	0	0
